<svg xmlns="http://www.w3.org/2000/svg" viewBox="185 13 111.2 31">
  <defs>
    <style>
      .cls-1, .cls-2 {
        fill: #ec2c2c;
      }

      .cls-1 {
        fill-rule: evenodd;
      }
    </style>
  </defs>
  <g id="Symbol_63_4" data-name="Symbol 63 – 4" transform="translate(165 -67)">
    <g id="Group_3100" data-name="Group 3100" transform="translate(20 80)">
      <g id="Group_3099" data-name="Group 3099">
        <path id="Path_5335" data-name="Path 5335" class="cls-1" d="M13.5,27.4l-1.7,2.2H13a.755.755,0,0,0,.7-.4.1.1,0,0,1,.1-.1h0c.5-.6.5-.8-.1-1.4Z"/>
        <path id="Path_5336" data-name="Path 5336" class="cls-1" d="M12.1,16.3a8.1,8.1,0,0,0-7.5,7.1,7.938,7.938,0,0,0,3,7.2l.4-.4A7.1,7.1,0,0,1,5.8,25,11.019,11.019,0,0,1,6,23.2a6.7,6.7,0,0,1,7.7-5.5,6.544,6.544,0,0,1,5,3.8,6.662,6.662,0,0,1-1.4,7.6l-1.7-2.2,2-2.6H16.5a1.222,1.222,0,0,0-.9.4c-.3.4-.6.8-.8,1.1h0l-1.7-2.1a2.586,2.586,0,0,0,1.1-1.4,2.044,2.044,0,0,0-.3-1.7,2.558,2.558,0,0,0-1.9-1H9.2v6.7h1.3V23.9h.8a1.421,1.421,0,0,1,.6.2,1.7,1.7,0,0,1,.6.6c.8,1.1,1.7,2.2,2.5,3.2L17,31l.6-.4a6.111,6.111,0,0,0,2.1-2.4A8.13,8.13,0,0,0,12.1,16.3ZM12,22.8H10.2V20.9H11a2.769,2.769,0,0,1,.9.1.876.876,0,0,1,.8.9C12.9,22.4,12.6,22.7,12,22.8Z"/>
      </g>
    </g>
    <g id="Group_3101" data-name="Group 3101" transform="translate(20 80)">
      <path id="Path_5337" data-name="Path 5337" class="cls-1" d="M12.6,9.7a1.155,1.155,0,0,0,1.2-1.2,1.2,1.2,0,0,0-2.4,0A1.216,1.216,0,0,0,12.6,9.7Z"/>
      <path id="Path_5338" data-name="Path 5338" class="cls-1" d="M20.8,15.5a1.1,1.1,0,1,0,1.1,1.1A1.11,1.11,0,0,0,20.8,15.5Z"/>
      <path id="Path_5339" data-name="Path 5339" class="cls-1" d="M4.3,15.5a1.1,1.1,0,1,0,1.1,1.1A1.11,1.11,0,0,0,4.3,15.5Z"/>
      <path id="Path_5340" data-name="Path 5340" class="cls-1" d="M15.5,12.3a1.2,1.2,0,1,0-1.2-1.2A1.216,1.216,0,0,0,15.5,12.3Z"/>
      <path id="Path_5341" data-name="Path 5341" class="cls-1" d="M18.2,12.6a1.2,1.2,0,1,0,1.2,1.2A1.155,1.155,0,0,0,18.2,12.6Z"/>
      <path id="Path_5342" data-name="Path 5342" class="cls-1" d="M9.7,9.9a1.2,1.2,0,1,0,1.2,1.2A1.287,1.287,0,0,0,9.7,9.9Z"/>
      <path id="Path_5343" data-name="Path 5343" class="cls-1" d="M6.9,12.6a1.2,1.2,0,1,0,0,2.4,1.2,1.2,0,0,0,0-2.4Z"/>
      <circle id="Ellipse_95" data-name="Ellipse 95" class="cls-2" cx="1.1" cy="1.1" r="1.1" transform="translate(8.5 7.4)"/>
      <path id="Path_5344" data-name="Path 5344" class="cls-1" d="M15.6,7.4a1.1,1.1,0,1,0,1.1,1.1A1.11,1.11,0,0,0,15.6,7.4Z"/>
      <path id="Path_5345" data-name="Path 5345" class="cls-1" d="M12.6,6.9a1.1,1.1,0,1,0-1.1-1.1A1.049,1.049,0,0,0,12.6,6.9Z"/>
      <path id="Path_5346" data-name="Path 5346" class="cls-1" d="M1.7,11.7A.684.684,0,0,0,1,11a.8.8,0,0,0,0,1.6A.961.961,0,0,0,1.7,11.7Z"/>
      <path id="Path_5347" data-name="Path 5347" class="cls-1" d="M3.6,9.6a.7.7,0,1,0-.7-.7A.684.684,0,0,0,3.6,9.6Z"/>
      <path id="Path_5348" data-name="Path 5348" class="cls-1" d="M1.3,9.2a.684.684,0,0,0-.7-.7.669.669,0,0,0-.6.7.684.684,0,0,0,.7.7A.858.858,0,0,0,1.3,9.2Z"/>
      <path id="Path_5349" data-name="Path 5349" class="cls-1" d="M15.6,6.8a.9.9,0,1,0-.9-.9A.9.9,0,0,0,15.6,6.8Z"/>
      <path id="Path_5350" data-name="Path 5350" class="cls-1" d="M9.5,6.8a.9.9,0,1,0-.9-.9A.9.9,0,0,0,9.5,6.8Z"/>
      <path id="Path_5351" data-name="Path 5351" class="cls-1" d="M12.6,1.4a.684.684,0,0,0,.7-.7.7.7,0,1,0-1.4,0A.684.684,0,0,0,12.6,1.4Z"/>
      <path id="Path_5352" data-name="Path 5352" class="cls-1" d="M15.7,4a.684.684,0,0,0,.7-.7.7.7,0,1,0-1.4,0A.842.842,0,0,0,15.7,4Z"/>
      <path id="Path_5353" data-name="Path 5353" class="cls-1" d="M9.4,4a.684.684,0,0,0,.7-.7.684.684,0,0,0-.7-.7.661.661,0,0,0-.6.7A.669.669,0,0,0,9.4,4Z"/>
      <path id="Path_5354" data-name="Path 5354" class="cls-1" d="M24.5,8.5a.7.7,0,1,0,.7.7A.842.842,0,0,0,24.5,8.5Z"/>
      <path id="Path_5355" data-name="Path 5355" class="cls-1" d="M24.2,11a.8.8,0,1,0,.8.8C24.9,11.3,24.6,11,24.2,11Z"/>
      <path id="Path_5356" data-name="Path 5356" class="cls-1" d="M21.3,10.4a1,1,0,1,0,1,1A1.075,1.075,0,0,0,21.3,10.4Z"/>
      <path id="Path_5357" data-name="Path 5357" class="cls-1" d="M21.5,9.6a.7.7,0,1,0-.7-.7A.684.684,0,0,0,21.5,9.6Z"/>
      <path id="Path_5358" data-name="Path 5358" class="cls-1" d="M3.9,12.4a1,1,0,1,0-1-1C2.8,12,3.3,12.4,3.9,12.4Z"/>
      <path id="Path_5359" data-name="Path 5359" class="cls-1" d="M6.8,12.2a1,1,0,1,0-1-1A1,1,0,0,0,6.8,12.2Z"/>
      <path id="Path_5360" data-name="Path 5360" class="cls-1" d="M1.6,16.2a.6.6,0,0,0,0,1.2.576.576,0,0,0,.6-.6A.645.645,0,0,0,1.6,16.2Z"/>
      <path id="Path_5361" data-name="Path 5361" class="cls-1" d="M12.6,4.2a.9.9,0,1,0-.9-.9A.9.9,0,0,0,12.6,4.2Z"/>
      <path id="Path_5362" data-name="Path 5362" class="cls-1" d="M21.1,12.9A1.1,1.1,0,1,0,22.2,14,1.182,1.182,0,0,0,21.1,12.9Z"/>
      <path id="Path_5363" data-name="Path 5363" class="cls-1" d="M23.6,16.2a.6.6,0,1,0,.6.6A.645.645,0,0,0,23.6,16.2Z"/>
      <path id="Path_5364" data-name="Path 5364" class="cls-1" d="M18.4,12.2a1,1,0,0,0,0-2,.945.945,0,0,0-1,1A1.075,1.075,0,0,0,18.4,12.2Z"/>
      <path id="Path_5365" data-name="Path 5365" class="cls-1" d="M4.1,15.1A1.1,1.1,0,1,0,3,14,1.11,1.11,0,0,0,4.1,15.1Z"/>
      <path id="Path_5366" data-name="Path 5366" class="cls-1" d="M15.4,12.4a1.324,1.324,0,0,0-1.3,1.3.6.6,0,0,0,.1.4,6.637,6.637,0,0,1,2,.6,1.231,1.231,0,0,0,.5-1A1.324,1.324,0,0,0,15.4,12.4Z"/>
      <path id="Path_5367" data-name="Path 5367" class="cls-1" d="M13.2,12.2a1.387,1.387,0,0,0,.7-1.2,1.4,1.4,0,0,0-2.8,0,1.387,1.387,0,0,0,.7,1.2,1.839,1.839,0,0,0-.8,1.4.6.6,0,0,0,.1.4c.3,0,.6-.1.9-.1h.6a7.569,7.569,0,0,1,1.5.1c0-.1.1-.3.1-.4A2.068,2.068,0,0,0,13.2,12.2Z"/>
      <path id="Path_5368" data-name="Path 5368" class="cls-1" d="M9.7,12.4a1.324,1.324,0,0,0-1.3,1.3,1.231,1.231,0,0,0,.5,1,6.637,6.637,0,0,1,2-.6c0-.1.1-.3.1-.4A1.324,1.324,0,0,0,9.7,12.4Z"/>
      <path id="Path_5369" data-name="Path 5369" class="cls-1" d="M18.1,15.1a1.854,1.854,0,0,0-.7.2,8.961,8.961,0,0,1,1.9,1.5c0-.1.1-.3.1-.4A1.324,1.324,0,0,0,18.1,15.1Z"/>
      <path id="Path_5370" data-name="Path 5370" class="cls-1" d="M5.7,16.4a.6.6,0,0,0,.1.4,8.961,8.961,0,0,1,1.9-1.5,1.445,1.445,0,0,0-.7-.2A1.324,1.324,0,0,0,5.7,16.4Z"/>
    </g>
    <g id="Group_3102" data-name="Group 3102" transform="translate(20 80)">
      <path id="Union_9" data-name="Union 9" d="M-2119.3,13.4l.2-1.5c.1,0,.3.1.4.1h.4a.75.75,0,0,0,.5-.1.757.757,0,0,0,.4-.2c.1-.1.2-.2.2-.3.1-.1.1-.3.2-.5l.3-.8-2.6-6.5h1.8l1.9,4.6,1.7-4.6h1.7l-3.2,8.1a5.943,5.943,0,0,1-.4.8,2.679,2.679,0,0,1-.5.6,1.619,1.619,0,0,1-.7.4,3.089,3.089,0,0,1-1,.1A5.865,5.865,0,0,1-2119.3,13.4Zm-9.2-2.9V9.529a1.72,1.72,0,0,1-.9.671,2.653,2.653,0,0,1-1.2.3,2.768,2.768,0,0,1-.9-.1,2.018,2.018,0,0,1-.8-.4q-.3-.3-.6-.6a2.388,2.388,0,0,1-.2-.9,2,2,0,0,1,.2-.9,1.024,1.024,0,0,1,.5-.6,2.007,2.007,0,0,1,.8-.4,2.916,2.916,0,0,1,.9-.2,2.769,2.769,0,0,1,.9-.1h1.3V6a.974.974,0,0,0-.4-.9,2.013,2.013,0,0,0-1.1-.3,2.943,2.943,0,0,0-1,.2,2.185,2.185,0,0,0-.8.5l-.9-.9a2.582,2.582,0,0,1,1.3-.8,4.014,4.014,0,0,1,1.5-.3,3.731,3.731,0,0,1,1.2.2,2,2,0,0,1,.8.4,2.656,2.656,0,0,1,.5.6,4.879,4.879,0,0,1,.3.7,1.269,1.269,0,0,1,.1.6v4.5Zm-1.9-3.1a1.616,1.616,0,0,0-.6.3.6.6,0,0,0-.3.6c0,.2,0,.3.1.4l.3.3c.1.1.2.1.4.2h.4a1.7,1.7,0,0,0,1.3-.4,1.367,1.367,0,0,0,.4-1.1V7.3h-1.2C-2129.9,7.3-2130.2,7.4-2130.4,7.4Zm-23.4,3.1V9.529a1.723,1.723,0,0,1-.9.671,2.653,2.653,0,0,1-1.2.3,2.768,2.768,0,0,1-.9-.1,2.019,2.019,0,0,1-.8-.4l-.6-.6a2.383,2.383,0,0,1-.2-.9,2,2,0,0,1,.2-.9,1.024,1.024,0,0,1,.5-.6,2.008,2.008,0,0,1,.8-.4,2.919,2.919,0,0,1,.9-.2,2.768,2.768,0,0,1,.9-.1h1.3V6a.975.975,0,0,0-.4-.9,2.013,2.013,0,0,0-1.1-.3,2.942,2.942,0,0,0-1,.2,2.186,2.186,0,0,0-.8.5l-.9-.9a2.58,2.58,0,0,1,1.3-.8,4.012,4.012,0,0,1,1.5-.3,3.738,3.738,0,0,1,1.2.2,2,2,0,0,1,.8.4,2.644,2.644,0,0,1,.5.6,4.963,4.963,0,0,1,.3.7,1.267,1.267,0,0,1,.1.6v4.5Zm-2-3.1a1.62,1.62,0,0,0-.6.3.6.6,0,0,0-.3.6c0,.2,0,.3.1.4l.3.3c.1.1.2.1.4.2h.4a1.7,1.7,0,0,0,1.3-.4,1.368,1.368,0,0,0,.4-1.1V7.3h-1.2C-2155.3,7.3-2155.6,7.4-2155.8,7.4Zm5.4,3V3.6h1.7V4.7a2.358,2.358,0,0,1,.8-.9,2.132,2.132,0,0,1,1.2-.3h.3a.37.37,0,0,1,.3.1V5.2c-.1,0-.3-.1-.4-.1h-.4a2,2,0,0,0-.9.2,1.2,1.2,0,0,0-.5.5l-.3.6c0,.2-.1.3-.1.4v3.6Zm28.6-.1a3.2,3.2,0,0,1-1.4-.3,7.4,7.4,0,0,1-1.2-.7,4.4,4.4,0,0,1-.8-1.1,3.193,3.193,0,0,1-.3-1.4,3.194,3.194,0,0,1,.3-1.4,2.829,2.829,0,0,1,.8-1.1,3.438,3.438,0,0,1,1.2-.7,3.2,3.2,0,0,1,1.4-.3,5.854,5.854,0,0,1,1.3.2,2.823,2.823,0,0,1,1.1.8l-1.1,1.3a2.631,2.631,0,0,0-.6-.5,1.444,1.444,0,0,0-.7-.2,1.881,1.881,0,0,0-.8.2c-.2.1-.4.3-.6.4a2.1,2.1,0,0,0-.4.6,1.933,1.933,0,0,0-.1.8,2.188,2.188,0,0,0,.1.8c.1.2.2.5.4.6a2.085,2.085,0,0,0,.6.4,1.882,1.882,0,0,0,.8.2,1.444,1.444,0,0,0,.7-.2,2.637,2.637,0,0,0,.6-.5l1.1,1.2a2.076,2.076,0,0,1-.6.4,4.937,4.937,0,0,1-.7.3c-.2.1-.4.1-.6.2Zm-52.6,0V.4h3.4a6.559,6.559,0,0,1,1.4.1,3.088,3.088,0,0,1,1.2.5,2.372,2.372,0,0,1,.8.9,2.91,2.91,0,0,1,.3,1.4,3.341,3.341,0,0,1-.3,1.5,1.964,1.964,0,0,1-.9.9,2.83,2.83,0,0,1-1.3.4,7.576,7.576,0,0,1-1.5.1h-1.3v4.1Zm1.8-5.5h1.1V4.7h.8a1.444,1.444,0,0,0,.7-.2,2.09,2.09,0,0,0,.6-.4,1.554,1.554,0,0,0,.2-.8,1.166,1.166,0,0,0-.2-.7,1,1,0,0,0-.5-.4,1.444,1.444,0,0,0-.7-.2h-2Zm36.3,5.4V6.4a1.273,1.273,0,0,0-.1-.6.763.763,0,0,0-.2-.5c-.1-.1-.2-.3-.4-.3a1.262,1.262,0,0,0-.6-.1,1.475,1.475,0,0,0-.7.1.779.779,0,0,0-.4.4,3.352,3.352,0,0,0-.3.6,1.265,1.265,0,0,0-.1.6v3.6h-1.7v-4a1.492,1.492,0,0,0-.3-1,1.267,1.267,0,0,0-.9-.4,1.487,1.487,0,0,0-.7.1,1.771,1.771,0,0,0-.5.4c-.1.2-.2.3-.3.5a1.27,1.27,0,0,0-.1.6v3.7h-1.7V3.6h2.1v1a1.776,1.776,0,0,1,.7-.8,2.5,2.5,0,0,1,1.3-.4,2.059,2.059,0,0,1,2.1,1.2,1.968,1.968,0,0,1,.9-.9,2.772,2.772,0,0,1,1.3-.3,3.6,3.6,0,0,1,1.1.2,1.4,1.4,0,0,1,.7.6,3.533,3.533,0,0,1,.4.9,3.751,3.751,0,0,1,.1,1.1v4Zm-25.3,0v-4c0-.2-.1-.4-.1-.6a1,1,0,0,0-.4-.5,1.45,1.45,0,0,0-.7-.2,1.474,1.474,0,0,0-.7.1,1.757,1.757,0,0,0-.5.4c-.1.2-.2.3-.3.5a1.268,1.268,0,0,0-.1.6v3.7h-1.7V-.2h1.7V4.5h.1a5.067,5.067,0,0,1,.7-.8,2.5,2.5,0,0,1,1.3-.3,3.6,3.6,0,0,1,1.1.2,1.553,1.553,0,0,1,.8.6,2.007,2.007,0,0,1,.4.8,3.084,3.084,0,0,1,.1,1v4.2Zm61-9.6a2.9,2.9,0,0,1-1.5-.9l1-1.4a6.047,6.047,0,0,0,1,.7,2.766,2.766,0,0,0,1.3.3,2.958,2.958,0,0,0,1-.2,1.783,1.783,0,0,0,.7-.5.907.907,0,0,0,.3-.7,2.775,2.775,0,0,0,.1-.9v-.5a1.832,1.832,0,0,1-1,.7,2.538,2.538,0,0,1-1.2.2,3.2,3.2,0,0,1-1.4-.3,4.146,4.146,0,0,1-1.1-.7,4.125,4.125,0,0,1-.7-1.1,2.946,2.946,0,0,1-.2-1.3,5.855,5.855,0,0,1,.2-1.4,2.582,2.582,0,0,1,.7-1.1,2.286,2.286,0,0,1,1-.7,5.775,5.775,0,0,1,1.4-.3,2.769,2.769,0,0,1,1.3.3,2.822,2.822,0,0,1,1,.9v-1h1.7v6.2a6.963,6.963,0,0,1-.2,1.6,2.4,2.4,0,0,1-.7,1.2,3.605,3.605,0,0,1-1.2.8,4.312,4.312,0,0,1-1.7.3A11.03,11.03,0,0,1-2100.6.6Zm1.3-8.3a2.116,2.116,0,0,0-.6.4,2.106,2.106,0,0,0-.4.6,1.948,1.948,0,0,0-.1.8,2.2,2.2,0,0,0,.1.8,2.106,2.106,0,0,0,.4.6,2.093,2.093,0,0,0,.6.4,1.877,1.877,0,0,0,.8.2,1.87,1.87,0,0,0,.8-.2c.2-.1.5-.2.6-.4a2.081,2.081,0,0,0,.4-.6,1.933,1.933,0,0,0,.1-.8,1.979,1.979,0,0,0-.5-1.4,1.98,1.98,0,0,0-1.4-.5A1.955,1.955,0,0,0-2099.3-7.7Zm-29.9,5.5V-3.4a1.885,1.885,0,0,1-1,.8,2.664,2.664,0,0,1-1.2.3,2.771,2.771,0,0,1-.9-.1,2.01,2.01,0,0,1-.8-.4l-.6-.6a2.387,2.387,0,0,1-.2-.9,2,2,0,0,1,.2-.9,1.028,1.028,0,0,1,.5-.6,2,2,0,0,1,.8-.4,2.916,2.916,0,0,1,.9-.2,2.768,2.768,0,0,1,.9-.1h1.4v-.2a.974.974,0,0,0-.4-.9,2.01,2.01,0,0,0-1.1-.3,2.955,2.955,0,0,0-1,.2,2.186,2.186,0,0,0-.8.5l-.9-.9a2.579,2.579,0,0,1,1.3-.8,4.018,4.018,0,0,1,1.5-.3,3.731,3.731,0,0,1,1.2.2,2.007,2.007,0,0,1,.8.4,2.7,2.7,0,0,1,.5.6,4.885,4.885,0,0,1,.3.7,1.269,1.269,0,0,1,.1.6v4.5Zm-2-3.2a1.64,1.64,0,0,0-.6.3.605.605,0,0,0-.3.6c0,.2,0,.3.1.4l.3.3c.1.1.2.1.4.2h.4a1.7,1.7,0,0,0,1.3-.4,1.368,1.368,0,0,0,.4-1.1v-.4h-1.2C-2130.7-5.5-2131-5.4-2131.2-5.4Zm-40.7,2.8a4.358,4.358,0,0,1-1.6-1,5.723,5.723,0,0,1-1.1-1.6,4.637,4.637,0,0,1-.4-2.1,5.388,5.388,0,0,1,.4-2.2,6.2,6.2,0,0,1,1.1-1.7,5.721,5.721,0,0,1,1.6-1.1,6.537,6.537,0,0,1,2.1-.4,4.06,4.06,0,0,1,1.9.4,8.08,8.08,0,0,1,1.5,1.3l-1.4,1a2.555,2.555,0,0,0-1.1-.8,2.957,2.957,0,0,0-1-.2,3.2,3.2,0,0,0-1.4.3,2.845,2.845,0,0,0-1.1.8,4.132,4.132,0,0,0-.7,1.1,5.034,5.034,0,0,0-.2,1.3,7.651,7.651,0,0,0,.2,1.5,7.47,7.47,0,0,0,.7,1.2,4.485,4.485,0,0,0,1.1.8,3.2,3.2,0,0,0,1.4.3,2.66,2.66,0,0,0,1.2-.3,4.386,4.386,0,0,0,1.1-.9l1.5,1a3.323,3.323,0,0,1-1.6,1.3,4.645,4.645,0,0,1-2.1.4A4.639,4.639,0,0,1-2171.9-2.6Zm63.4.1a1.559,1.559,0,0,1-.8-.6,2.015,2.015,0,0,1-.4-.8,3.09,3.09,0,0,1-.1-1V-9.2h1.6v4c0,.2.1.4.1.6a1,1,0,0,0,.4.5,1.439,1.439,0,0,0,.7.2,1.485,1.485,0,0,0,.7-.1,1.771,1.771,0,0,0,.5-.4c.1-.2.2-.3.3-.5a1.27,1.27,0,0,0,.1-.6V-9.2h1.7v6.7h-1.7V-3.6a5.519,5.519,0,0,1-.7.9,2.5,2.5,0,0,1-1.3.4A3.6,3.6,0,0,1-2108.5-2.5Zm-32.1-.1a2.54,2.54,0,0,1-1-.7,4.1,4.1,0,0,1-.7-1.1,5.906,5.906,0,0,1-.2-1.4,5.907,5.907,0,0,1,.2-1.4,4.116,4.116,0,0,1,.7-1.1,2.276,2.276,0,0,1,1-.7,2.766,2.766,0,0,1,1.3-.3,1.951,1.951,0,0,1,.8.1,1.447,1.447,0,0,1,.7.2c.2.1.3.2.5.3l.3.3V-13h1.7V-2.4h-1.6V-3.5a2.839,2.839,0,0,1-1,.9,3.083,3.083,0,0,1-1.3.3A3.2,3.2,0,0,1-2140.6-2.6Zm.9-5c-.2.1-.4.3-.6.4a2.081,2.081,0,0,0-.4.6,2.183,2.183,0,0,0-.1.8,2.181,2.181,0,0,0,.1.8c.1.2.2.5.4.6a2.107,2.107,0,0,0,.6.4,1.883,1.883,0,0,0,.8.2,1.89,1.89,0,0,0,.8-.2c.2-.1.4-.3.6-.4a2.106,2.106,0,0,0,.4-.6,1.948,1.948,0,0,0,.1-.8,2.2,2.2,0,0,0-.1-.8c-.1-.2-.2-.5-.4-.6a2.093,2.093,0,0,0-.6-.4,1.877,1.877,0,0,0-.8-.2A1.87,1.87,0,0,0-2139.7-7.6Zm-8.9,5.2a2.014,2.014,0,0,1-.8-.4l-.6-.6a2.388,2.388,0,0,1-.2-.9,2,2,0,0,1,.2-.9,1.025,1.025,0,0,1,.5-.6,2,2,0,0,1,.8-.4,2.917,2.917,0,0,1,.9-.2,2.768,2.768,0,0,1,.9-.1h1.3v-.2a.974.974,0,0,0-.4-.9,1.016,1.016,0,0,0-1-.5,2.965,2.965,0,0,0-1,.2,2.188,2.188,0,0,0-.8.5l-.9-.9a2.572,2.572,0,0,1,1.3-.8,4.016,4.016,0,0,1,1.5-.3,3.733,3.733,0,0,1,1.2.2,2.01,2.01,0,0,1,.8.4,2.679,2.679,0,0,1,.5.6,1.08,1.08,0,0,1,.3.7,1.265,1.265,0,0,1,.1.6v4.5h-1.5v-1a1.885,1.885,0,0,1-1,.8,2.664,2.664,0,0,1-1.2.3A2.77,2.77,0,0,1-2148.6-2.4Zm1.1-3a1.636,1.636,0,0,0-.6.3.606.606,0,0,0-.3.6c0,.2,0,.3.1.4l.3.3c.1.1.2.1.4.2h.4a1.7,1.7,0,0,0,1.3-.4,1.369,1.369,0,0,0,.4-1.1v-.4h-1.2C-2147-5.5-2147.3-5.4-2147.5-5.4ZM-2161-2.3V-3.4a1.888,1.888,0,0,1-1,.8,2.664,2.664,0,0,1-1.2.3,2.769,2.769,0,0,1-.9-.1,2.006,2.006,0,0,1-.8-.4l-.6-.6a2.388,2.388,0,0,1-.2-.9,2,2,0,0,1,.2-.9,1.021,1.021,0,0,1,.5-.6,2,2,0,0,1,.8-.4,2.929,2.929,0,0,1,.9-.2,2.776,2.776,0,0,1,.9-.1h1.3v-.2a.973.973,0,0,0-.4-.9,2.008,2.008,0,0,0-1.1-.3,2.962,2.962,0,0,0-1,.2,2.193,2.193,0,0,0-.8.5l-.8-1a2.574,2.574,0,0,1,1.3-.8,4.013,4.013,0,0,1,1.5-.3,3.736,3.736,0,0,1,1.2.2,2.012,2.012,0,0,1,.8.4,2.673,2.673,0,0,1,.5.6,4.946,4.946,0,0,1,.3.7,1.268,1.268,0,0,1,.1.6v4.5Zm-2-3.1a1.625,1.625,0,0,0-.6.3.606.606,0,0,0-.3.6c0,.2,0,.3.1.4l.3.3c.1.1.2.1.4.2h.4a1.7,1.7,0,0,0,1.3-.4,1.368,1.368,0,0,0,.4-1.1v-.4h-1.2C-2162.5-5.5-2162.8-5.4-2163-5.4Zm47.6,3V-9.2h1.8v1.1a2.362,2.362,0,0,1,.8-.9,2.137,2.137,0,0,1,1.2-.3h.3a.369.369,0,0,1,.3.1v1.6c-.1,0-.3-.1-.4-.1h-.4a2,2,0,0,0-.9.2,1.023,1.023,0,0,0-.6.5l-.3.6c0,.2-.1.3-.1.4v3.6Zm-10.3-.1v-9.8h3.9a5.81,5.81,0,0,1,1.9.3,5.056,5.056,0,0,1,1.6.9,4.181,4.181,0,0,1,1.1,1.5,4.819,4.819,0,0,1,.4,2.2,5.076,5.076,0,0,1-.5,2.2,4.419,4.419,0,0,1-1.2,1.5,5.554,5.554,0,0,1-1.7.9,5.663,5.663,0,0,1-1.8.3ZM-2124-4h1.3a8.753,8.753,0,0,0,1.6-.2,3.1,3.1,0,0,0,1.3-.6,4.344,4.344,0,0,0,.9-1,3.346,3.346,0,0,0,.3-1.5,3.346,3.346,0,0,0-.3-1.5,2,2,0,0,0-.8-1,2.289,2.289,0,0,0-1.2-.6,6.82,6.82,0,0,0-1.5-.2h-1.6Zm-29.2,1.4v-4c0-.2-.1-.4-.1-.6a1,1,0,0,0-.4-.5,1.445,1.445,0,0,0-.7-.2,1.482,1.482,0,0,0-.7.1,1.747,1.747,0,0,0-.5.4c-.1.2-.2.3-.3.5a1.273,1.273,0,0,0-.1.6v3.7h-1.7V-9.2h1.6v1.1a5.483,5.483,0,0,1,.7-.9,2.505,2.505,0,0,1,1.3-.4,3.6,3.6,0,0,1,1.1.2,1.557,1.557,0,0,1,.8.6,2.022,2.022,0,0,1,.4.8,3.09,3.09,0,0,1,.1,1v4.2Z" transform="translate(2206.2 17)"/>
    </g>
  </g>
</svg>
